<?xml version="1.0" standalone="no"?><!DOCTYPE svg PUBLIC "-//W3C//DTD SVG 1.1//EN" "http://www.w3.org/Graphics/SVG/1.1/DTD/svg11.dtd"><svg t="1565321010938" class="icon" viewBox="0 0 1024 1024" version="1.1" xmlns="http://www.w3.org/2000/svg" p-id="2406" xmlns:xlink="http://www.w3.org/1999/xlink" width="200" height="200"><defs><style type="text/css"></style></defs><path d="M282.624 608.256L225.28 745.472l131.072-75.776zM727.04 608.256l59.392 137.216-131.072-75.776zM380.928 890.88l266.24-2.048-18.432-194.56-233.472 2.048-14.336 194.56z" fill="#EE9B9B" p-id="2407"></path><path d="M258.048 538.624c20.48 0 38.912 20.48 38.912 47.104 0 26.624-16.384 47.104-38.912 47.104s-38.912-20.48-38.912-47.104c0-26.624 16.384-47.104 38.912-47.104z m522.24-20.48c20.48 0 38.912 20.48 38.912 47.104 0 26.624-16.384 47.104-38.912 47.104s-38.912-20.48-38.912-47.104c2.048-26.624 18.432-47.104 38.912-47.104zM634.88 731.136c12.288-4.096 22.528 4.096 26.624 14.336l18.432 65.536c2.048 12.288-4.096 24.576-14.336 26.624-12.288 4.096-22.528-4.096-26.624-14.336l-18.432-65.536c-4.096-12.288 2.048-22.528 14.336-26.624z m-243.712 0c-12.288-4.096-24.576 4.096-26.624 14.336l-16.384 67.584c-2.048 12.288 4.096 24.576 14.336 26.624 12.288 4.096 24.576-4.096 26.624-14.336l18.432-67.584c2.048-12.288-4.096-22.528-16.384-26.624z m122.88-12.288c26.624 0 51.2 12.288 51.2 26.624 0 14.336-22.528 26.624-51.2 26.624-26.624 0-51.2-12.288-51.2-26.624 2.048-14.336 22.528-26.624 51.2-26.624z" fill="#FDDFDF" p-id="2408"></path><path d="M622.592 776.192l47.104-18.432-28.672-61.44-34.816 12.288c0 2.048 16.384 67.584 16.384 67.584z m-217.088-4.096l-47.104-22.528 22.528-55.296 53.248 18.432-28.672 59.392z m-10.24 108.544c0 8.192 6.144 94.208 6.144 94.208l92.16 6.144 6.144-65.536h45.056l12.288 61.44 81.92 2.048-6.144-120.832-227.328-6.144c-4.096 0-12.288 20.48-10.24 28.672z" fill="#EE9B9B" p-id="2409"></path><path d="M512 788.48c6.144 0 8.192 4.096 8.192 8.192 0 6.144-4.096 8.192-8.192 8.192-6.144 0-8.192-4.096-8.192-8.192-2.048-4.096 2.048-8.192 8.192-8.192z m0 36.864c6.144 0 8.192 4.096 8.192 8.192 0 6.144-4.096 8.192-8.192 8.192-6.144 0-8.192-4.096-8.192-8.192-2.048-4.096 2.048-8.192 8.192-8.192z" fill="#FFFFFF" p-id="2410"></path><path d="M380.928 880.64h266.24v8.192h-266.24V880.64zM512 43.008c180.224 0 327.68 147.456 327.68 327.68s-147.456 327.68-327.68 327.68S184.32 552.96 184.32 372.736C184.32 190.464 329.728 43.008 512 43.008z" fill="#EE9B9B" p-id="2411"></path><path d="M514.048 241.664c159.744 0 290.816 110.592 290.816 247.808C804.864 626.688 675.84 737.28 514.048 737.28S225.28 626.688 225.28 489.472c0-135.168 129.024-247.808 288.768-247.808z" fill="#FDDFDF" p-id="2412"></path><path d="M280.576 444.416l120.832-69.632-32.768 73.728 202.752-102.4-20.48 106.496 153.6-126.976 57.344 108.544 71.68-77.824-241.664-139.264-239.616 22.528-114.688 67.584-49.152 81.92 20.48 81.92 26.624-61.44c2.048-2.048 45.056 34.816 45.056 34.816z" fill="#EE9B9B" p-id="2413"></path><path d="M327.68 524.288c0 16.384 12.288 28.672 28.672 28.672 16.384 0 28.672-12.288 28.672-28.672 0-16.384-12.288-28.672-28.672-28.672-16.384 0-28.672 12.288-28.672 28.672zM632.832 524.288c0 16.384 12.288 28.672 28.672 28.672 16.384 0 28.672-12.288 28.672-28.672s-12.288-28.672-28.672-28.672c-16.384 0-28.672 12.288-28.672 28.672z" fill="#454545" p-id="2414"></path><path d="M346.112 512c4.096 0 6.144 2.048 6.144 6.144 0 4.096-2.048 6.144-6.144 6.144-4.096 0-6.144-2.048-6.144-6.144 0-4.096 2.048-6.144 6.144-6.144zM655.36 512c4.096 0 6.144 2.048 6.144 6.144 0 4.096-2.048 6.144-6.144 6.144-4.096 0-6.144-2.048-6.144-6.144 0-4.096 4.096-6.144 6.144-6.144z" fill="#FFFFFF" p-id="2415"></path><path d="M358.4 622.592c-38.912 0-69.632-30.72-69.632-69.632s30.72-69.632 69.632-69.632 69.632 30.72 69.632 69.632-30.72 69.632-69.632 69.632z m0-131.072c-34.816 0-61.44 26.624-61.44 61.44s26.624 61.44 61.44 61.44 61.44-26.624 61.44-61.44-26.624-61.44-61.44-61.44z m303.104 131.072c-38.912 0-69.632-30.72-69.632-69.632s30.72-69.632 69.632-69.632 69.632 30.72 69.632 69.632-28.672 69.632-69.632 69.632z m0-131.072c-34.816 0-61.44 26.624-61.44 61.44s26.624 61.44 61.44 61.44 61.44-26.624 61.44-61.44-26.624-61.44-61.44-61.44z" fill="#EE9B9B" p-id="2416"></path><path d="M765.952 569.344h-36.864c-2.048 0-4.096-2.048-4.096-4.096s2.048-4.096 4.096-4.096h34.816l53.248-77.824c2.048-2.048 4.096-2.048 6.144 0 2.048 2.048 2.048 4.096 0 6.144l-53.248 79.872h-4.096z m-473.088-12.288h-34.816c-2.048 0-4.096 0-4.096-2.048l-38.912-73.728c0-2.048 0-4.096 2.048-6.144 2.048 0 4.096 0 6.144 2.048l36.864 71.68h32.768c2.048 0 4.096 2.048 4.096 4.096s-2.048 4.096-4.096 4.096zM292.864 485.376h4.096c63.488-36.864 108.544-2.048 108.544 0 4.096 2.048 10.24 2.048 12.288 0 2.048-4.096 2.048-10.24 0-12.288-2.048-2.048-32.768-20.48-79.872-14.336-22.528 4.096-49.152 26.624-45.056 26.624zM681.984 456.704c-47.104-6.144-77.824 12.288-79.872 14.336-4.096 2.048-4.096 8.192 0 12.288 2.048 4.096 8.192 4.096 12.288 0 2.048-2.048 45.056-34.816 108.544 0h4.096c4.096 2.048-22.528-20.48-45.056-26.624zM514.048 669.696c-40.96 0-75.776-24.576-77.824-26.624-2.048-2.048-2.048-4.096 0-6.144 2.048-2.048 4.096-2.048 6.144 0 0 0 34.816 24.576 71.68 24.576s67.584-26.624 67.584-26.624c2.048-2.048 4.096-2.048 6.144 0 2.048 2.048 2.048 4.096 0 6.144-2.048 2.048-32.768 28.672-73.728 28.672z" fill="#EE9B9B" p-id="2417"></path></svg>